<svg xmlns="http://www.w3.org/2000/svg" width="70" height="73.106" viewBox="0 0 70 73.106">
    <g id="GOGAME_Logo" fill-rule="evenodd" transform="translate(-5983 -5237)">
        <path id="Path_4" d="M6000.459 7776.1c.239.351 14.068 10.09 14.182 10.126v-4.089h25.012c-.981 4.449-4.645 9.308-8.229 11.914a22.584 22.584 0 0 1-35.86-15.763H5983c.468 10.61 6.206 18.832 11.5 23.7l1.744 1.427c22.479 18.063 56.754 1.472 56.754-26.736a36.822 36.822 0 0 0-.571-6.977l-37.791-.058V7766a13.771 13.771 0 0 0-1.826 1.235z"  transform="translate(-.003 -2500.845)"/>
        <path id="Path_5" fill="#f70" d="M6037.475 5241.907c-6.613.4-13.964-.578-20.464.294-15.381 2.062-30.423 16.262-30.209 32.151h12.468a22.337 22.337 0 0 1 11.706-17.362c8.259-3.6 11.6-2.4 26.488-2.626l.021 3.907 3.5-2.48c1.2-.851 2.316-1.687 3.53-2.525l5.308-3.8a16.638 16.638 0 0 0 1.747-1.3c-.18-.294-10.867-7.915-12.286-8.913a18.508 18.508 0 0 0-1.8-1.246z"  transform="translate(-3.758 -1)"/>
    </g>
</svg>
