<svg xmlns="http://www.w3.org/2000/svg" xmlns:xlink="http://www.w3.org/1999/xlink" viewBox="0 0 500 500"><defs><clipPath id="freepik--clip-path--inject-17"><rect x="259.34" y="140.4" width="138.26" height="223.7" style="fill:#FFC100;stroke:#263238;stroke-linecap:round;stroke-linejoin:round"></rect></clipPath><clipPath id="freepik--clip-path-2--inject-17"><path d="M195.44,405.67a89.6,89.6,0,0,0,10.61,2.12c3.44.27,8.48-.53,9,1.06s-5.83,5.3-10.07,6.89-8.75,1.33-12.73,2.12-7.16.53-7.95,0,0-7.42,0-7.42Z" style="fill:#fff;stroke:#263238;stroke-linecap:round;stroke-linejoin:round"></path></clipPath><clipPath id="freepik--clip-path-3--inject-17"><path d="M122.54,402.22s-2.92,4.51-4.51,5.57-5.57,4.24-6.36,6.89,2.91,3.71,6.1,3.45,6.89,0,8.74-2.92,5.31-11.93,5.31-11.93S124.92,400.9,122.54,402.22Z" style="fill:#fff;stroke:#263238;stroke-linecap:round;stroke-linejoin:round"></path></clipPath><clipPath id="freepik--clip-path-4--inject-17"><path d="M227.24,230.67s11.35-12.37,12.36-13.56,1.7-9.48,1.7-10.33-4.58-8.13-4.58-8.13l-1.52.85,4.74,8.3-8-7L231,202l6.77,7.62-.85,3.22-7.28-8.64-1.35,1.36,6.26,9.14-6.43-4.4-.68,1.35,4.23,5.93s-3.72.85-4.4,2.88a5.43,5.43,0,0,0-.17,3.39l-2.88,2.54Z" style="fill:#fff;stroke:#263238;stroke-linecap:round;stroke-linejoin:round"></path></clipPath><clipPath id="freepik--clip-path-5--inject-17"><path d="M224.87,224.91l5.76,8.3s-20.48,16.63-24.21,18.67-5.08,2.88-5.59,3-12.22-21-14.93-27.14,8.75-34.2,8.75-34.2,7.51,20.25,9.54,26.51a66.3,66.3,0,0,0,5.45,12Z" style="fill:#FFC100;stroke:#263238;stroke-linecap:round;stroke-linejoin:round"></path></clipPath><clipPath id="freepik--clip-path-6--inject-17"><path d="M186.61,232.45a26.76,26.76,0,0,1,1.94-6.52c1.33-2.66,4.77-25.45,6.1-29.17a5,5,0,0,0,.27-2.4,5.86,5.86,0,0,0-.83-1.8c-1.49-2.16-10.14-9-13.13-11.14s-8-4.15-11-4.15-9.31.16-9.31.16a105.52,105.52,0,0,1-10.31,4.32c-3.32,1-18,7.48-18,8.65s3,61.83,3,61.83l-2.66,41.23a201.64,201.64,0,0,0,19.95-8.65c7.81-4.15,17.62-15.12,17.62-15.12s7.32,7,10.47,9.31,11.14,11.3,11.14,11.3l-6.48-45.88Z" style="fill:#FFC100;stroke:#263238;stroke-linecap:round;stroke-linejoin:round"></path></clipPath><clipPath id="freepik--clip-path-7--inject-17"><path d="M157.63,155.8s-1.84-2.33-2.84-.16a12.7,12.7,0,0,0-.33,7.83c.66,1.67,2.67,2.84,2.83,1.84S157.63,155.8,157.63,155.8Z" style="fill:#fff;stroke:#263238;stroke-linecap:round;stroke-linejoin:round"></path></clipPath><clipPath id="freepik--clip-path-8--inject-17"><path d="M181.79,160.14l0,0c1.49-4,3.35-9.43,3.35-11.83,0-4-4.66-10.3-11.31-11s-12.46,4.16-14.29,8-4.16,21.61-4.16,25.1,2.49,9.81,8.81,10a12.74,12.74,0,0,0,10.81-5c.83-1.33,3.49-5.65,3.49-5.65a30.61,30.61,0,0,0,4.32-1.5c2.49-1.16,2.16-4.82,2.16-7.48S181.79,160.14,181.79,160.14Z" style="fill:#fff;stroke:#263238;stroke-linecap:round;stroke-linejoin:round"></path></clipPath><clipPath id="freepik--clip-path-9--inject-17"><path d="M157.33,268,113,265s-7.95,32.81-7.75,34.6,4.5,2.75,9.74,4.17c7.36,2,37,5.17,41,5s3.38-6.56,3.58-7.75,2.58-32.41,2.58-32.41Z" style="fill:#fff;stroke:#263238;stroke-linecap:round;stroke-linejoin:round"></path></clipPath><clipPath id="freepik--clip-path-10--inject-17"><path d="M157.33,268s-5.56,37.78-5.56,39.17,7.95,2.59,8.94,0,4.38-37.58,4.38-38.17S157.33,268,157.33,268Z" style="fill:#fff;stroke:#263238;stroke-linecap:round;stroke-linejoin:round"></path></clipPath><clipPath id="freepik--clip-path-11--inject-17"><path d="M146.72,261H151c.5,0,5.32-3,6.81-3s4.82.17,6.15.17,2.17-1.33,2.17.33-2,2.66-3,2.83-4.82.66-4.82.66,8.81,3.49,9.15,4,.49,2.66-.67,3-3.16.67-3.16.67-.5,1.66-.83,2.82a2.84,2.84,0,0,1-1.49,1.67,11.61,11.61,0,0,1-2,1.82c-.83.5-4.49-.16-6.48-.66s-7.15-3.82-7.65-4.16-2.82-2.66-2.82-2.66Z" style="fill:#fff;stroke:#263238;stroke-linecap:round;stroke-linejoin:round"></path></clipPath><clipPath id="freepik--clip-path-12--inject-17"><path d="M135.75,188.07s-9.15,4-9.64,6-17.62,47.18-17.62,48.84,19.78,17.16,23.93,20.65a58,58,0,0,0,7.65,5.48l6.48-9.64S135.24,246,133.41,242.63a35.89,35.89,0,0,0-4.39-6.12l13.38-26.33" style="fill:#FFC100;stroke:#263238;stroke-linecap:round;stroke-linejoin:round"></path></clipPath></defs><g id="freepik--City--inject-17"><polyline points="65.25 343.74 65.25 319.31 102.35 319.31 102.35 208.05 139.45 208.05 139.45 232.47 160.22 232.47 160.22 304.39 210.68 304.39 210.68 265.04 234.42 265.04 234.42 286.74 251.89 286.74 259.72 286.74 260.35 294.89 280.85 294.89 280.85 262.32 297.17 262.32 297.17 160.56 337.23 160.56 337.23 199.91 366.91 199.91 366.91 90 399.56 90 399.56 271.82 433.69 271.82 433.69 316.6 440.51 316.6" style="fill:none;stroke:#000;stroke-miterlimit:10;opacity:0.30000000000000004"></polyline><rect x="108.91" y="232.15" width="8.02" height="8.7" style="opacity:0.30000000000000004"></rect><rect x="125.63" y="232.15" width="8.02" height="8.7" style="opacity:0.30000000000000004"></rect><rect x="108.91" y="250.26" width="8.02" height="8.7" style="opacity:0.30000000000000004"></rect><rect x="125.63" y="250.26" width="8.02" height="8.7" style="opacity:0.30000000000000004"></rect><rect x="143.68" y="250.26" width="8.02" height="8.7" style="opacity:0.30000000000000004"></rect><rect x="143.68" y="268.38" width="8.02" height="8.69" style="opacity:0.30000000000000004"></rect><rect x="143.68" y="286.49" width="8.02" height="8.69" style="opacity:0.30000000000000004"></rect><rect x="143.68" y="304.61" width="8.02" height="8.69" style="opacity:0.30000000000000004"></rect><rect x="143.68" y="322.72" width="8.02" height="8.7" style="opacity:0.30000000000000004"></rect><rect x="143.68" y="340.84" width="8.02" height="8.7" style="opacity:0.30000000000000004"></rect><rect x="108.91" y="268.38" width="8.02" height="8.69" style="opacity:0.30000000000000004"></rect><rect x="125.63" y="268.38" width="8.02" height="8.69" style="opacity:0.30000000000000004"></rect><rect x="108.91" y="286.49" width="8.02" height="8.69" style="opacity:0.30000000000000004"></rect><rect x="125.63" y="286.49" width="8.02" height="8.69" style="opacity:0.30000000000000004"></rect><rect x="108.91" y="304.61" width="8.02" height="8.69" style="opacity:0.30000000000000004"></rect><rect x="125.63" y="304.61" width="8.02" height="8.69" style="opacity:0.30000000000000004"></rect><rect x="108.91" y="322.72" width="8.02" height="8.7" style="opacity:0.30000000000000004"></rect><rect x="72.14" y="332.86" width="8.02" height="8.7" style="opacity:0.30000000000000004"></rect><rect x="187.82" y="313.3" width="8.02" height="8.69" style="opacity:0.30000000000000004"></rect><rect x="203.86" y="313.3" width="8.02" height="8.69" style="opacity:0.30000000000000004"></rect><rect x="372.25" y="100.27" width="8.02" height="8.7" style="opacity:0.30000000000000004"></rect><rect x="382.28" y="100.27" width="8.02" height="8.7" style="opacity:0.30000000000000004"></rect><rect x="372.25" y="118.39" width="8.02" height="8.69" style="opacity:0.30000000000000004"></rect><rect x="382.28" y="118.39" width="8.02" height="8.69" style="opacity:0.30000000000000004"></rect><rect x="372.25" y="136.5" width="8.02" height="8.69" style="opacity:0.30000000000000004"></rect><rect x="382.28" y="136.5" width="8.02" height="8.69" style="opacity:0.30000000000000004"></rect><rect x="372.25" y="154.62" width="8.02" height="8.69" style="opacity:0.30000000000000004"></rect><rect x="382.28" y="154.62" width="8.02" height="8.69" style="opacity:0.30000000000000004"></rect><rect x="372.25" y="172.73" width="8.02" height="8.69" style="opacity:0.30000000000000004"></rect><rect x="382.28" y="172.73" width="8.02" height="8.69" style="opacity:0.30000000000000004"></rect><rect x="372.25" y="190.85" width="8.02" height="8.69" style="opacity:0.30000000000000004"></rect><rect x="382.28" y="190.85" width="8.02" height="8.69" style="opacity:0.30000000000000004"></rect><rect x="372.25" y="208.96" width="8.02" height="8.69" style="opacity:0.30000000000000004"></rect><rect x="382.28" y="208.96" width="8.02" height="8.69" style="opacity:0.30000000000000004"></rect><rect x="372.25" y="227.08" width="8.02" height="8.69" style="opacity:0.30000000000000004"></rect><rect x="382.28" y="227.08" width="8.02" height="8.69" style="opacity:0.30000000000000004"></rect><rect x="372.25" y="245.19" width="8.02" height="8.7" style="opacity:0.30000000000000004"></rect><rect x="382.28" y="245.19" width="8.02" height="8.7" style="opacity:0.30000000000000004"></rect><rect x="304.05" y="245.19" width="8.02" height="8.7" style="opacity:0.30000000000000004"></rect><rect x="321.43" y="245.19" width="8.02" height="8.7" style="opacity:0.30000000000000004"></rect><rect x="338.82" y="245.19" width="8.02" height="8.7" style="opacity:0.30000000000000004"></rect><rect x="304.05" y="284.32" width="8.02" height="8.69" style="opacity:0.30000000000000004"></rect><rect x="321.43" y="284.32" width="8.02" height="8.69" style="opacity:0.30000000000000004"></rect><rect x="338.82" y="284.32" width="8.02" height="8.69" style="opacity:0.30000000000000004"></rect><rect x="304.05" y="323.45" width="8.02" height="8.69" style="opacity:0.30000000000000004"></rect><rect x="321.43" y="323.45" width="8.02" height="8.69" style="opacity:0.30000000000000004"></rect><rect x="338.82" y="323.45" width="8.02" height="8.69" style="opacity:0.30000000000000004"></rect><rect x="372.25" y="263.3" width="8.02" height="8.7" style="opacity:0.30000000000000004"></rect><rect x="382.28" y="263.3" width="8.02" height="8.7" style="opacity:0.30000000000000004"></rect><rect x="372.25" y="281.42" width="8.02" height="8.69" style="opacity:0.30000000000000004"></rect><rect x="382.28" y="281.42" width="8.02" height="8.69" style="opacity:0.30000000000000004"></rect><rect x="372.25" y="299.53" width="8.02" height="8.69" style="opacity:0.30000000000000004"></rect><rect x="382.28" y="299.53" width="8.02" height="8.69" style="opacity:0.30000000000000004"></rect><rect x="399" y="281.42" width="8.02" height="8.69" style="opacity:0.30000000000000004"></rect><rect x="417.72" y="281.42" width="8.02" height="8.69" style="opacity:0.30000000000000004"></rect><rect x="399" y="298.81" width="8.02" height="8.69" style="opacity:0.30000000000000004"></rect><rect x="417.72" y="298.81" width="8.02" height="8.69" style="opacity:0.30000000000000004"></rect><rect x="399" y="316.2" width="8.02" height="8.7" style="opacity:0.30000000000000004"></rect><rect x="417.72" y="316.2" width="8.02" height="8.7" style="opacity:0.30000000000000004"></rect><rect x="399" y="333.59" width="8.02" height="8.7" style="opacity:0.30000000000000004"></rect><rect x="417.72" y="333.59" width="8.02" height="8.7" style="opacity:0.30000000000000004"></rect><rect x="372.25" y="317.65" width="8.02" height="8.69" style="opacity:0.30000000000000004"></rect><rect x="382.28" y="317.65" width="8.02" height="8.69" style="opacity:0.30000000000000004"></rect><rect x="372.25" y="335.76" width="8.02" height="8.69" style="opacity:0.30000000000000004"></rect><rect x="382.28" y="335.76" width="8.02" height="8.69" style="opacity:0.30000000000000004"></rect><rect x="125.63" y="322.72" width="8.02" height="8.7" style="opacity:0.30000000000000004"></rect><rect x="108.91" y="340.84" width="8.02" height="8.7" style="opacity:0.30000000000000004"></rect><rect x="125.63" y="340.84" width="8.02" height="8.7" style="opacity:0.30000000000000004"></rect><rect x="108.91" y="358.95" width="8.02" height="8.7" style="opacity:0.30000000000000004"></rect><rect x="125.63" y="358.95" width="8.02" height="8.7" style="opacity:0.30000000000000004"></rect><rect x="108.91" y="377.06" width="8.02" height="8.69" style="opacity:0.30000000000000004"></rect><rect x="125.63" y="377.06" width="8.02" height="8.69" style="opacity:0.30000000000000004"></rect><polyline points="354.86 382.51 354.86 418.37 288 418.37 288 347.09 354.86 347.09 354.86 376.13" style="fill:none;stroke:#000;stroke-miterlimit:10;opacity:0.30000000000000004"></polyline><polyline points="422.91 418.37 411.03 418.37 411.03 380.69 424.83 380.69" style="fill:none;stroke:#000;stroke-miterlimit:10;opacity:0.30000000000000004"></polyline><polyline points="186.45 380.69 233.95 380.69 233.95 418.37 167.09 418.37 167.09 380.69 180.11 380.69" style="fill:none;stroke:#000;stroke-miterlimit:10;opacity:0.30000000000000004"></polyline><polyline points="81.83 380.69 88.18 380.69 88.18 418.37 63.44 418.37 63.44 380.69 76.85 380.69" style="fill:none;stroke:#000;stroke-miterlimit:10;opacity:0.30000000000000004"></polyline><rect x="316.08" y="347.09" width="10.7" height="71.28" style="fill:none;stroke:#000;stroke-miterlimit:10;opacity:0.30000000000000004"></rect><polyline points="243.67 356.78 233.17 356.78 233.17 337.94 268.61 337.94 268.61 356.78 253.18 356.78" style="fill:none;stroke:#000;stroke-miterlimit:10;opacity:0.30000000000000004"></polyline></g><g id="freepik--Character--inject-17"><polygon points="112.99 265.03 138.05 187.49 142.22 185.3 116.97 265.43 112.99 265.03" style="fill:#263238;stroke:#263238;stroke-linecap:round;stroke-linejoin:round"></polygon><path d="M195.44,405.67a89.6,89.6,0,0,0,10.61,2.12c3.44.27,8.48-.53,9,1.06s-5.83,5.3-10.07,6.89-8.75,1.33-12.73,2.12-7.16.53-7.95,0,0-7.42,0-7.42Z" style="fill:#fff"></path><g style="clip-path:url(#freepik--clip-path-2--inject-17)"><path d="M215.07,409a4.48,4.48,0,0,0-2.07.8c-2.36,1.63-2,3.26-13.07,3.26s-8.72-.54-8.72-2c0-1,1.85-3.38,3.09-4.89l-10,4.28s-.8,6.89,0,7.42,4,.8,7.95,0,8.48-.53,12.73-2.12S215.26,410.63,215.07,409Z" style="opacity:0.2"></path><path d="M184,416a40.24,40.24,0,0,0,12.53-.36c7.26-1.28,15.61-6.72,18-7.09" style="fill:none;stroke:#263238;stroke-linecap:round;stroke-linejoin:round"></path></g><path d="M195.44,405.67a89.6,89.6,0,0,0,10.61,2.12c3.44.27,8.48-.53,9,1.06s-5.83,5.3-10.07,6.89-8.75,1.33-12.73,2.12-7.16.53-7.95,0,0-7.42,0-7.42Z" style="fill:none;stroke:#263238;stroke-linecap:round;stroke-linejoin:round"></path><path d="M122.54,402.22s-2.92,4.51-4.51,5.57-5.57,4.24-6.36,6.89,2.91,3.71,6.1,3.45,6.89,0,8.74-2.92,5.31-11.93,5.31-11.93S124.92,400.9,122.54,402.22Z" style="fill:#fff"></path><g style="clip-path:url(#freepik--clip-path-3--inject-17)"><path d="M127.85,412.7c-.47.16-.95.33-1.45.53-4.72,1.81-6.18-.37-6.9-1.28-.58-.72,7-6.91,10-9.35-2.23-.58-5.48-1.21-7-.38,0,0-2.92,4.51-4.51,5.57s-5.57,4.24-6.36,6.89,2.91,3.71,6.1,3.45,6.89,0,8.74-2.92A22.69,22.69,0,0,0,127.85,412.7Z" style="opacity:0.2"></path><path d="M111.67,414.68a14.56,14.56,0,0,0,9.83,1.45c5.81-1.09,6.53-4,6.53-4" style="fill:none;stroke:#263238;stroke-linecap:round;stroke-linejoin:round"></path></g><path d="M122.54,402.22s-2.92,4.51-4.51,5.57-5.57,4.24-6.36,6.89,2.91,3.71,6.1,3.45,6.89,0,8.74-2.92,5.31-11.93,5.31-11.93S124.92,400.9,122.54,402.22Z" style="fill:none;stroke:#263238;stroke-linecap:round;stroke-linejoin:round"></path><path d="M133.94,290.61s.79,32.35.53,33.41-2.92,11.66-3.71,15.37-3.72,14.05-3.45,24.92-3.18,27.57-3.18,27.57-2.12,4.51-1.86,5.57a35.3,35.3,0,0,1,.27,4.77s4.5.53,7.42,1.06,2.92-2.12,2.92-2.12,2.65-3.44,2.91-6.1,3.05-10.33,3.05-10.33,9.68-29.7,11.27-33.41,4.51-16.17,6.1-20.94,7.42-30.22,7.42-30.22,9.28,41.62,9.28,45.33-1.59,15.64.26,23.33,8.75,28.9,8.75,28.9-1.32,5.83-1.32,6.89,3.71,5.83,3.71,5.83l11.13-4.77s-.26-8.22-.26-10.07,1.32-7.69.79-10.08-4.5-5.3-4.5-7.69,3.18-29.95,2.91-40-4.51-50.1-6.36-54.88-13.52-17.23-18.29-17.76S133.94,290.61,133.94,290.61Z" style="fill:#263238;stroke:#263238;stroke-linecap:round;stroke-linejoin:round"></path><path d="M174.92,343.07s4.81-9.21,9.22-16.82" style="fill:none;stroke:#fff;stroke-linecap:round;stroke-linejoin:round"></path><line x1="187.34" y1="323.04" x2="188.54" y2="320.24" style="fill:none;stroke:#fff;stroke-linecap:round;stroke-linejoin:round"></line><path d="M144.08,364.7s-5.61,9.77-15.62,15.22" style="fill:none;stroke:#fff;stroke-linecap:round;stroke-linejoin:round"></path><path d="M139.27,381.52a84.93,84.93,0,0,1-8.41,4.81" style="fill:none;stroke:#fff;stroke-linecap:round;stroke-linejoin:round"></path><path d="M237,192.93l-9.54,18.76,6.94,4.24,11.82-23.8a.88.88,0,0,0-.88-1.27l-6.35.7A2.55,2.55,0,0,0,237,192.93Z" style="fill:#263238;stroke:#263238;stroke-linecap:round;stroke-linejoin:round"></path><path d="M227.24,230.67s11.35-12.37,12.36-13.56,1.7-9.48,1.7-10.33-4.58-8.13-4.58-8.13l-1.52.85,4.74,8.3-8-7L231,202l6.77,7.62-.85,3.22-7.28-8.64-1.35,1.36,6.26,9.14-6.43-4.4-.68,1.35,4.23,5.93s-3.72.85-4.4,2.88a5.43,5.43,0,0,0-.17,3.39l-2.88,2.54Z" style="fill:#fff"></path><g style="clip-path:url(#freepik--clip-path-4--inject-17)"><path d="M227.24,230.67s11.35-12.37,12.36-13.56,1.7-9.48,1.7-10.33-4.58-8.13-4.58-8.13l-1.52.85,4.74,8.3-8-7L231,202l6.77,7.62-.85,3.22-7.28-8.64-1.35,1.36,6.26,9.14-6.43-4.4-.68,1.35,4.23,5.93s-3.72.85-4.4,2.88a5.43,5.43,0,0,0-.17,3.39l-2.88,2.54Z" style="opacity:0.1"></path><path d="M231.64,217.62c-.09,0-3.73.87-4.4,2.88a5.43,5.43,0,0,0-.17,3.39l-2.88,2.54,3.05,4.24s11.35-12.37,12.36-13.56a4.89,4.89,0,0,0,.67-1.85,53.41,53.41,0,0,1-7.19,3.17A3.52,3.52,0,0,1,231.64,217.62Z" style="opacity:0.2"></path></g><path d="M227.24,230.67s11.35-12.37,12.36-13.56,1.7-9.48,1.7-10.33-4.58-8.13-4.58-8.13l-1.52.85,4.74,8.3-8-7L231,202l6.77,7.62-.85,3.22-7.28-8.64-1.35,1.36,6.26,9.14-6.43-4.4-.68,1.35,4.23,5.93s-3.72.85-4.4,2.88a5.43,5.43,0,0,0-.17,3.39l-2.88,2.54Z" style="fill:none;stroke:#263238;stroke-linecap:round;stroke-linejoin:round"></path><line x1="236.89" y1="212.88" x2="237.06" y2="215.59" style="fill:#fff;stroke:#263238;stroke-linecap:round;stroke-linejoin:round"></line><line x1="239.94" y1="207.8" x2="240.11" y2="210.85" style="fill:#fff;stroke:#263238;stroke-linecap:round;stroke-linejoin:round"></line><line x1="234.52" y1="214.74" x2="234.35" y2="215.93" style="fill:#fff;stroke:#263238;stroke-linecap:round;stroke-linejoin:round"></line><polygon points="228.59 231.85 230.8 228.8 227.07 223.89 224.36 225.58 228.59 231.85" style="fill:#fff;stroke:#263238;stroke-linecap:round;stroke-linejoin:round"></polygon><path d="M224.87,224.91l5.76,8.3s-20.48,16.63-24.21,18.67-5.08,2.88-5.59,3-12.22-21-14.93-27.14,8.75-34.2,8.75-34.2,7.51,20.25,9.54,26.51a66.3,66.3,0,0,0,5.45,12Z" style="fill:#FFC100"></path><g style="clip-path:url(#freepik--clip-path-5--inject-17)"><path d="M228.13,235.22c-6,.42-17.1,1-19.79,1-3.54,0-8.75,3.91-8.75,3.91A2.18,2.18,0,0,1,196.8,239c-.93-1.86,1.3-5.77,1.3-5.77s-3-.75-4.1-1.86-2.79-25.88-2.79-25.88l-1.07.26c-2.86,8.4-5.75,18.65-4.24,22.05,2.71,6.1,14.42,27.31,14.93,27.14s1.86-1,5.59-3C209.34,250.28,222.56,239.71,228.13,235.22Z" style="opacity:0.2"></path></g><path d="M224.87,224.91l5.76,8.3s-20.48,16.63-24.21,18.67-5.08,2.88-5.59,3-12.22-21-14.93-27.14,8.75-34.2,8.75-34.2,7.51,20.25,9.54,26.51a66.3,66.3,0,0,0,5.45,12Z" style="fill:none;stroke:#263238;stroke-linecap:round;stroke-linejoin:round"></path><path d="M209.9,231.79s-8.13,3.39-9.48,5.42a11.86,11.86,0,0,0-1.53,5.08" style="fill:none;stroke:#263238;stroke-linecap:round;stroke-linejoin:round"></path><path d="M186.61,232.45a26.76,26.76,0,0,1,1.94-6.52c1.33-2.66,4.77-25.45,6.1-29.17a5,5,0,0,0,.27-2.4,5.86,5.86,0,0,0-.83-1.8c-1.49-2.16-10.14-9-13.13-11.14s-8-4.15-11-4.15-9.31.16-9.31.16a105.52,105.52,0,0,1-10.31,4.32c-3.32,1-18,7.48-18,8.65s3,61.83,3,61.83l-2.66,41.23a201.64,201.64,0,0,0,19.95-8.65c7.81-4.15,17.62-15.12,17.62-15.12s7.32,7,10.47,9.31,11.14,11.3,11.14,11.3l-6.48-45.88Z" style="fill:#FFC100"></path><g style="clip-path:url(#freepik--clip-path-6--inject-17)"><path d="M154.86,181.05S150,198.42,152,205.82s10.62,19.63,10.62,19.63" style="fill:none;stroke:#263238;stroke-linecap:round;stroke-linejoin:round"></path><path d="M177.7,180.08S189.28,200,188.32,208.4,179,226.09,179,226.09" style="fill:none;stroke:#263238;stroke-linecap:round;stroke-linejoin:round"></path><path d="M189.35,224.27s-21.78,14.33-22.71,14.89-23.82-6.33-21.22-4.84S169.25,247,169.25,247l13.4-3.91,3.72,6.33-.93-7.07Z" style="opacity:0.2"></path><path d="M138.91,270.25c1.49-1.12,3-10.24,2.79-12.47s0-31.27.37-35-4.46,10.05-4.46,10.05l1.49-16.75-4.94,10.58c.66,13.49,1.25,25.57,1.25,25.57l-1.23,19.15A15.8,15.8,0,0,0,138.91,270.25Z" style="opacity:0.2"></path></g><path d="M186.61,232.45a26.76,26.76,0,0,1,1.94-6.52c1.33-2.66,4.77-25.45,6.1-29.17a5,5,0,0,0,.27-2.4,5.86,5.86,0,0,0-.83-1.8c-1.49-2.16-10.14-9-13.13-11.14s-8-4.15-11-4.15-9.31.16-9.31.16a105.52,105.52,0,0,1-10.31,4.32c-3.32,1-18,7.48-18,8.65s3,61.83,3,61.83l-2.66,41.23a201.64,201.64,0,0,0,19.95-8.65c7.81-4.15,17.62-15.12,17.62-15.12s7.32,7,10.47,9.31,11.14,11.3,11.14,11.3l-6.48-45.88Z" style="fill:none;stroke:#263238;stroke-linecap:round;stroke-linejoin:round"></path><path d="M168.85,241.87s.56,14.85.88,23.29" style="fill:none;stroke:#263238;stroke-linecap:round;stroke-linejoin:round"></path><path d="M171.71,244.1c0,.55-.33,1-.72,1s-.72-.44-.72-1,.32-1,.72-1S171.71,243.55,171.71,244.1Z" style="fill:#263238"></path><path d="M172.07,253.09c0,.55-.33,1-.72,1s-.72-.44-.72-1,.32-1,.72-1S172.07,252.54,172.07,253.09Z" style="fill:#263238"></path><path d="M173,263.34c0,.54-.33,1-.72,1s-.72-.45-.72-1,.32-1,.72-1S173,262.79,173,263.34Z" style="fill:#263238"></path><path d="M157.63,155.8s-1.84-2.33-2.84-.16a12.7,12.7,0,0,0-.33,7.83c.66,1.67,2.67,2.84,2.83,1.84S157.63,155.8,157.63,155.8Z" style="fill:#fff"></path><g style="clip-path:url(#freepik--clip-path-7--inject-17)"><path d="M157.63,155.8s-1.84-2.33-2.84-.16a12.7,12.7,0,0,0-.33,7.83c.66,1.67,2.67,2.84,2.83,1.84S157.63,155.8,157.63,155.8Z" style="opacity:0.2"></path></g><path d="M157.63,155.8s-1.84-2.33-2.84-.16a12.7,12.7,0,0,0-.33,7.83c.66,1.67,2.67,2.84,2.83,1.84S157.63,155.8,157.63,155.8Z" style="fill:none;stroke:#263238;stroke-linecap:round;stroke-linejoin:round"></path><path d="M159.18,178.1s-.16,11.3.34,20.44-.83,16,1.49,20.78,7.82,20.28,8.48,19.28,11.14-18.45,12.47-24.43-1.67-24.44-3.33-28.26-2.16-7.15-4.15-8.15S163.34,172.45,159.18,178.1Z" style="fill:#fff;stroke:#263238;stroke-linecap:round;stroke-linejoin:round"></path><path d="M158.85,177.1a14.44,14.44,0,0,0,2,6.32c1.82,2.82,7.64,11.63,9,11.13s4.82-10.8,5.82-14.46,2.16-10,2.16-10-4.49,5.15-7.65,6.31S158.85,177.1,158.85,177.1Z" style="fill:#fff;stroke:#263238;stroke-linecap:round;stroke-linejoin:round"></path><path d="M158.85,177.1a14.44,14.44,0,0,0,2,6.32c1.82,2.82,7.64,11.63,9,11.13s4.82-10.8,5.82-14.46,2.16-10,2.16-10-4.49,5.15-7.65,6.31S158.85,177.1,158.85,177.1Z" style="opacity:0.1"></path><path d="M170.76,182.32c3.51-3.68,6.36-10,6.36-10l-.94-.44c-1.59,1.61-4.06,3.87-6,4.59-3.16,1.17-11.31.67-11.31.67a14.44,14.44,0,0,0,2,6.32c.68,1.06,1.93,3,3.29,4.9A77.33,77.33,0,0,0,170.76,182.32Z" style="opacity:0.2"></path><path d="M181.79,160.14l0,0c1.49-4,3.35-9.43,3.35-11.83,0-4-4.66-10.3-11.31-11s-12.46,4.16-14.29,8-4.16,21.61-4.16,25.1,2.49,9.81,8.81,10a12.74,12.74,0,0,0,10.81-5c.83-1.33,3.49-5.65,3.49-5.65a30.61,30.61,0,0,0,4.32-1.5c2.49-1.16,2.16-4.82,2.16-7.48S181.79,160.14,181.79,160.14Z" style="fill:#fff"></path><g style="clip-path:url(#freepik--clip-path-8--inject-17)"><path d="M181.79,160.14l0,0c1.49-4,3.35-9.43,3.35-11.83,0-4-4.66-10.3-11.31-11s-12.46,4.16-14.29,8-4.16,21.61-4.16,25.1,2.49,9.81,8.81,10a12.74,12.74,0,0,0,10.81-5c.83-1.33,3.49-5.65,3.49-5.65a30.61,30.61,0,0,0,4.32-1.5c2.49-1.16,2.16-4.82,2.16-7.48S181.79,160.14,181.79,160.14Z" style="opacity:0.1"></path><path d="M161.73,153c.5-1.17.33-6.19,5.18-11a15.72,15.72,0,0,1,9-4.19,12.29,12.29,0,0,0-2.14-.43c-6.65-.66-12.46,4.16-14.29,8s-4.16,21.61-4.16,25.1,2.49,9.81,8.81,10a13.23,13.23,0,0,0,9.71-3.67,2.45,2.45,0,0,0-.61.21,19.38,19.38,0,0,1-8.37,2.18c-3.51,0-6.86-2-7.36-6.36s1-10.71,2.51-12.71S161.22,154.21,161.73,153Z" style="opacity:0.2"></path></g><path d="M181.79,160.14l0,0c1.49-4,3.35-9.43,3.35-11.83,0-4-4.66-10.3-11.31-11s-12.46,4.16-14.29,8-4.16,21.61-4.16,25.1,2.49,9.81,8.81,10a12.74,12.74,0,0,0,10.81-5c.83-1.33,3.49-5.65,3.49-5.65a30.61,30.61,0,0,0,4.32-1.5c2.49-1.16,2.16-4.82,2.16-7.48S181.79,160.14,181.79,160.14Z" style="fill:none;stroke:#263238;stroke-linecap:round;stroke-linejoin:round"></path><path d="M164.63,162s-2.17,1.84-1.5,3.5a3.48,3.48,0,0,0,4,1.84c1.33-.33,1.5-3.84,1.5-3.84" style="fill:none;stroke:#263238;stroke-linecap:round;stroke-linejoin:round"></path><line x1="161.79" y1="169.81" x2="166.8" y2="171.31" style="fill:none;stroke:#263238;stroke-linecap:round;stroke-linejoin:round"></line><path d="M167,155.64s-2-2-3.66-2.34a10.67,10.67,0,0,0-3-.17" style="fill:none;stroke:#263238;stroke-linecap:round;stroke-linejoin:round"></path><path d="M170.3,156.64a7.09,7.09,0,0,1,4.17,0c2.5.66,3,2.16,3,2.16" style="fill:none;stroke:#263238;stroke-linecap:round;stroke-linejoin:round"></path><path d="M163.78,158.06c-.15.77-.68,1.32-1.17,1.22s-.78-.8-.63-1.57.67-1.31,1.17-1.21S163.93,157.3,163.78,158.06Z" style="fill:#263238"></path><path d="M172.8,160.3c-.15.77-.68,1.32-1.17,1.22s-.78-.8-.63-1.57.68-1.31,1.17-1.21S173,159.54,172.8,160.3Z" style="fill:#263238"></path><path d="M173.81,137.37c-6.65-.66-12.46,4.16-14.29,8a45.22,45.22,0,0,0-2.16,8.92c1.14-1.54,3.32-4.61,3.32-5.59a12.62,12.62,0,0,1,3.32-7.32c2.33-2.33,3.33-2,5.32-.33s4,3.32,7.15,3.32,6.32-.16,6,2.66-2.33,6.32-2.33,7.82-1,8.14,0,7.14c.53-.53,1.19-1.33,1.71-2,1.47-4,3.28-9.28,3.28-11.65C185.12,144.35,180.46,138,173.81,137.37Z" style="fill:#263238"></path><polyline points="161.68 198.88 169.82 194.55 180.13 198.38" style="fill:none;stroke:#263238;stroke-linecap:round;stroke-linejoin:round"></polyline><polygon points="164.84 197.21 169.82 202.2 165.83 230.46 169.49 238.6 174.31 230.63 171.65 201.53 174.81 196.71 169.82 194.55 164.84 197.21" style="fill:#263238"></polygon><path d="M157.33,268,113,265s-7.95,32.81-7.75,34.6,4.5,2.75,9.74,4.17c7.36,2,37,5.17,41,5s3.38-6.56,3.58-7.75,2.58-32.41,2.58-32.41Z" style="fill:#fff"></path><g style="clip-path:url(#freepik--clip-path-9--inject-17)"><path d="M157.33,268,113,265s-7.95,32.81-7.75,34.6,4.5,2.75,9.74,4.17c7.36,2,37,5.17,41,5s3.38-6.56,3.58-7.75,2.58-32.41,2.58-32.41Z" style="opacity:0.5"></path></g><path d="M157.33,268,113,265s-7.95,32.81-7.75,34.6,4.5,2.75,9.74,4.17c7.36,2,37,5.17,41,5s3.38-6.56,3.58-7.75,2.58-32.41,2.58-32.41Z" style="fill:none;stroke:#263238;stroke-linecap:round;stroke-linejoin:round"></path><path d="M157.33,268s-5.56,37.78-5.56,39.17,7.95,2.59,8.94,0,4.38-37.58,4.38-38.17S157.33,268,157.33,268Z" style="fill:#fff"></path><g style="clip-path:url(#freepik--clip-path-10--inject-17)"><path d="M157.33,268s-5.56,37.78-5.56,39.17,7.95,2.59,8.94,0,4.38-37.58,4.38-38.17S157.33,268,157.33,268Z" style="opacity:0.30000000000000004"></path></g><path d="M157.33,268s-5.56,37.78-5.56,39.17,7.95,2.59,8.94,0,4.38-37.58,4.38-38.17S157.33,268,157.33,268Z" style="fill:none;stroke:#263238;stroke-linecap:round;stroke-linejoin:round"></path><polygon points="143.81 184.3 160.31 263.44 158.33 286.9 161.91 287.1 164.29 262.44 148.19 182.71 143.81 184.3" style="fill:#263238;stroke:#263238;stroke-linecap:round;stroke-linejoin:round"></polygon><path d="M146.72,261H151c.5,0,5.32-3,6.81-3s4.82.17,6.15.17,2.17-1.33,2.17.33-2,2.66-3,2.83-4.82.66-4.82.66,8.81,3.49,9.15,4,.49,2.66-.67,3-3.16.67-3.16.67-.5,1.66-.83,2.82a2.84,2.84,0,0,1-1.49,1.67,11.61,11.61,0,0,1-2,1.82c-.83.5-4.49-.16-6.48-.66s-7.15-3.82-7.65-4.16-2.82-2.66-2.82-2.66Z" style="fill:#fff"></path><g style="clip-path:url(#freepik--clip-path-11--inject-17)"><path d="M146.72,261H151c.5,0,5.32-3,6.81-3s4.82.17,6.15.17,2.17-1.33,2.17.33-2,2.66-3,2.83-4.82.66-4.82.66,8.81,3.49,9.15,4,.49,2.66-.67,3-3.16.67-3.16.67-.5,1.66-.83,2.82a2.84,2.84,0,0,1-1.49,1.67,11.61,11.61,0,0,1-2,1.82c-.83.5-4.49-.16-6.48-.66s-7.15-3.82-7.65-4.16-2.82-2.66-2.82-2.66Z" style="opacity:0.1"></path><path d="M159.35,276a11.61,11.61,0,0,0,2-1.82,2.84,2.84,0,0,0,1.49-1.67c.33-1.16.83-2.82.83-2.82s2-.33,3.16-.67a1.21,1.21,0,0,0,.8-.94c-1.76-.14-4.16-.31-4.93-.31-1.26,0-1.26,3.32-1.58,4.43s-1.58,1.89-3.16.95-10.91-5.06-11.23-5.54.48-3.79,1.27-4.43,6.16-3.48,6.16-3.48l-.22-.08A23,23,0,0,1,151,261h-4.32l-4.32,7.48s2.32,2.33,2.82,2.66,5.65,3.66,7.65,4.16S158.52,276.5,159.35,276Z" style="opacity:0.2"></path><path d="M161.28,260.65c-3.64.48-2.93,1.39-2.93,1.39s3.83-.5,4.82-.66,3-1.17,3-2.83c0-.08,0-.15,0-.22C165.06,259.51,164.36,260.25,161.28,260.65Z" style="opacity:0.2"></path></g><path d="M146.72,261H151c.5,0,5.32-3,6.81-3s4.82.17,6.15.17,2.17-1.33,2.17.33-2,2.66-3,2.83-4.82.66-4.82.66,8.81,3.49,9.15,4,.49,2.66-.67,3-3.16.67-3.16.67-.5,1.66-.83,2.82a2.84,2.84,0,0,1-1.49,1.67,11.61,11.61,0,0,1-2,1.82c-.83.5-4.49-.16-6.48-.66s-7.15-3.82-7.65-4.16-2.82-2.66-2.82-2.66Z" style="fill:none;stroke:#263238;stroke-linecap:round;stroke-linejoin:round"></path><polygon points="144.72 258.22 147.55 260.88 142.89 269.52 140.07 267.69 144.72 258.22" style="fill:#fff;stroke:#263238;stroke-linecap:round;stroke-linejoin:round"></polygon><path d="M135.75,188.07s-9.15,4-9.64,6-17.62,47.18-17.62,48.84,19.78,17.16,23.93,20.65a58,58,0,0,0,7.65,5.48l6.48-9.64S135.24,246,133.41,242.63a35.89,35.89,0,0,0-4.39-6.12l13.38-26.33" style="fill:#FFC100"></path><g style="clip-path:url(#freepik--clip-path-12--inject-17)"><path d="M140.07,269l.89-1.33-26-22.94s3.22-6.43,8.05-6.75-6.76,0-5.79-.65,18.33-23.81,18.33-23.81.33-4.82-2.57-12.22-5.79-8.37-5.79-8.37l-.14-.08a2.74,2.74,0,0,0-.94,1.18c-.5,2-17.62,47.18-17.62,48.84s19.78,17.16,23.93,20.65A58,58,0,0,0,140.07,269Z" style="opacity:0.2"></path></g><path d="M135.75,188.07s-9.15,4-9.64,6-17.62,47.18-17.62,48.84,19.78,17.16,23.93,20.65a58,58,0,0,0,7.65,5.48l6.48-9.64S135.24,246,133.41,242.63a35.89,35.89,0,0,0-4.39-6.12l13.38-26.33" style="fill:none;stroke:#263238;stroke-linecap:round;stroke-linejoin:round"></path><line x1="163.63" y1="300.16" x2="168.18" y2="290.22" style="fill:#fff;stroke:#263238;stroke-linecap:round;stroke-linejoin:round"></line></g><g id="freepik--Floor--inject-17"><line x1="54.21" y1="418.37" x2="451.06" y2="418.37" style="fill:none;stroke:#263238;stroke-linecap:round;stroke-linejoin:round"></line></g></svg>